<svg id="dns-minimal-logo" xmlns="http://www.w3.org/2000/svg" width="200" height="28.607" viewBox="0 0 200 28.607">
  <g id="Group_4" data-name="Group 4" transform="translate(101.782 5.62)">
    <g id="Group_3" data-name="Group 3">
      <path id="Path_1" data-name="Path 1" d="M188.48,28.85V22.227a10.965,10.965,0,0,0-.519-3.833,4.754,4.754,0,0,0-1.752-1.989,4.534,4.534,0,0,0-2.6-.755,5.714,5.714,0,0,0-4.346,2.035V15.65H177.09V28.8h2.173V24.019a15.415,15.415,0,0,1,.236-3.262,4.512,4.512,0,0,1,1.418-2.225,3.824,3.824,0,0,1,2.409-.9,2.8,2.8,0,0,1,1.844.565,3.007,3.007,0,0,1,.945,1.7,15.655,15.655,0,0,1,.19,2.79v6.15h2.173Z" transform="translate(-177.09 -12.249)" fill="#fff"/>
      <path id="Path_2" data-name="Path 2" d="M226.5,26.35V15.139h4.162l-.807-1.983H226.5V9.75h-2.179v3.407H221.3v1.983h3.026V26.35Z" transform="translate(-195.817 -9.75)" fill="#fff"/>
      <path id="Path_3" data-name="Path 3" d="M249.032,15.66h-.663l-3.833,8.7-3.689-8.7H238.53l5.626,13.194h.715l3.827-8.606,3.879,8.606h.663l5.724-13.194h-2.317l-3.741,8.7Z" transform="translate(-203.116 -12.253)" fill="#fff"/>
      <path id="Path_4" data-name="Path 4" d="M278.987,15.566a6.223,6.223,0,0,0-4.824,2.127,6.629,6.629,0,0,0,.092,9.078,6.134,6.134,0,0,0,4.726,1.989,5.969,5.969,0,0,0,4.68-1.989,6.522,6.522,0,0,0,1.845-4.588,6.422,6.422,0,0,0-1.752-4.542,6.155,6.155,0,0,0-4.778-2.081Zm3.833,8.94a4.071,4.071,0,0,1-1.608,1.608,4.482,4.482,0,0,1-2.225.565,4.543,4.543,0,0,1-2.225-.565,4.5,4.5,0,0,1-2.225-3.879,4.417,4.417,0,0,1,1.326-3.262,4.344,4.344,0,0,1,6.248,0,4.613,4.613,0,0,1,1.326,3.262,4.205,4.205,0,0,1-.617,2.271Z" transform="translate(-217.468 -12.211)" fill="#fff"/>
      <path id="Path_5" data-name="Path 5" d="M315,9.75V26.3h2.179V21.053l5.862,5.251h3.118L318.6,19.491l7.188-6.242h-3.216l-5.389,4.68V9.75Z" transform="translate(-235.509 -9.75)" fill="#fff"/>
      <path id="Path_6" data-name="Path 6" d="M335.673,28.313a4.652,4.652,0,0,0,2.081.473,3.969,3.969,0,0,0,2.79-1.089,3.542,3.542,0,0,0,1.135-2.7,3.488,3.488,0,0,0-.663-2.035,8.132,8.132,0,0,0-2.461-1.752A6.457,6.457,0,0,1,336.8,20.03a1.506,1.506,0,0,1-.38-.945,1.259,1.259,0,0,1,.427-.945,1.5,1.5,0,0,1,1.089-.427,3.286,3.286,0,0,1,2.225,1.136l.19.19,1.372-1.418-.19-.19a5,5,0,0,0-3.5-1.7,3.608,3.608,0,0,0-2.553.991,3.31,3.31,0,0,0-.991,2.461,3.213,3.213,0,0,0,.617,1.989,6.7,6.7,0,0,0,2.271,1.7,7.938,7.938,0,0,1,1.844,1.182,1.529,1.529,0,0,1,.38.991,1.5,1.5,0,0,1-.565,1.182,2.068,2.068,0,0,1-1.372.519,3.087,3.087,0,0,1-2.271-1.228l-.19-.236L333.88,26.8l.144.19a4.632,4.632,0,0,0,1.654,1.326Z" transform="translate(-243.506 -12.283)" fill="#fff"/>
      <path id="Path_7" data-name="Path 7" d="M297.69,15.66V28.808h2.127V24.029a15.732,15.732,0,0,1,.236-3.262,4.16,4.16,0,0,1,1.418-2.173,3.8,3.8,0,0,1,2.363-.9,2.885,2.885,0,0,1,1.844.565,2.63,2.63,0,0,1,.38.38l.282.38v-2.79H306.3a4.8,4.8,0,0,0-2.173-.519,5.609,5.609,0,0,0-2.646.663,6.03,6.03,0,0,0-1.654,1.326V15.666H297.7Z" transform="translate(-228.176 -12.253)" fill="#fff"/>
    </g>
    <path id="Path_8" data-name="Path 8" d="M211.971,22.7v-.282a6.64,6.64,0,0,0-1.372-4.254,6.193,6.193,0,0,0-5.107-2.409,5.958,5.958,0,0,0-4.969,2.363,6.787,6.787,0,0,0-1.464,4.208,6.872,6.872,0,0,0,1.7,4.542,6,6,0,0,0,4.778,2.035A6.739,6.739,0,0,0,208,28.471a7.341,7.341,0,0,0,1.989-1.228,7.194,7.194,0,0,0,1.516-2.081l.092-.19h-2.363V24.88a7.959,7.959,0,0,1-.755.9,4.366,4.366,0,0,1-1.372.8,4.919,4.919,0,0,1-1.7.282,4.084,4.084,0,0,1-2.98-1.228A4.269,4.269,0,0,1,201.2,22.7h10.784ZM202.6,18.77a4.132,4.132,0,0,1,2.836-1.043,4.622,4.622,0,0,1,1.937.427,4.308,4.308,0,0,1,1.464,1.089,4.2,4.2,0,0,1,.755,1.516h-8.179A5.024,5.024,0,0,1,202.6,18.77Z" transform="translate(-186.397 -12.292)" fill="#fff"/>
  </g>
  <g id="Group_5" data-name="Group 5">
    <path id="d" d="M22.3,17.686a19.611,19.611,0,0,1,.617,3.643,8.406,8.406,0,0,1-.617,3.643,6.7,6.7,0,0,1-1.8,2.409,7,7,0,0,1-2.98,1.372A46.522,46.522,0,0,1,11.8,28.9H9.005V17.686H.59V35.941H14.821a21.876,21.876,0,0,0,6.669-1.089,15.913,15.913,0,0,0,5.251-2.98,12.7,12.7,0,0,0,3.453-4.444,13.718,13.718,0,0,0,1.136-5.58,11.089,11.089,0,0,0-.663-4.208H22.3v.046Z" transform="translate(-0.543 -7.472)" fill="#fff"/>
    <path id="Path_9" data-name="Path 9" d="M57.04,18.63V36.458h8.7V26Z" transform="translate(-24.455 -7.892)" fill="#fff"/>
    <g id="top" transform="translate(64.978 10.254)">
      <path id="Path_10" data-name="Path 10" d="M133.529,17.8l-18.11.046h-.38V25.03l17.309-.092c3.833.092,3.5,4.018,0,4.018l-17.309-.046V30.8a8.864,8.864,0,0,1-.617,3.262l-.046.144c-.19.38-.38.755-.617,1.136a4.375,4.375,0,0,1-.519.755l19.2.046c13.713-.092,14.093-17.4,1.089-18.353Z" transform="translate(-113.24 -17.79)" fill="#fff"/>
    </g>
    <path id="Path_11" data-name="Path 11" d="M65.533.046c-8.8,0-8.842,7.286-8.842,7.9v8.8L39.336,1.608a6.21,6.21,0,0,0-1.28-.9A4.191,4.191,0,0,0,35.837.046L7.317,0C.267,0,.509,7.1.509,7.234l32.3.046a1.424,1.424,0,0,1,1.136.427l22.606,19.58a6.02,6.02,0,0,0,1.562.991,4.132,4.132,0,0,0,1.654.329,6.194,6.194,0,0,0,1.752-.329,4.9,4.9,0,0,0,1.562-.991,5.976,5.976,0,0,0,1.089-1.654,6.32,6.32,0,0,0,.427-2.317V10.26c0-2.79,2.79-3.262,4.634-3.309h0l22.278-.046s3.781.144,3.781-6.859H65.544Z" transform="translate(-0.508)" fill="#fff"/>
  </g>
</svg>
